<svg xmlns="http://www.w3.org/2000/svg" version="1.1" viewBox="-5.0 -10.0 110.0 135.0">
 <path d="m92.355 80.844h-5.8984c1.2305-1.2656 1.918-2.9648 1.918-4.7305v-41.914c0-3.7656-3.0508-6.8125-6.8125-6.8125h-11.938c-0.10547-2.1289-1.3477-4.0352-3.25-4.9922 1.6484-5.2422-1.0039-10.875-6.0938-12.945-5.0938-2.0742-10.922 0.10547-13.406 5.0078-0.42578-0.12891-0.86719-0.19531-1.3125-0.19531-1.4844 0.007812-2.8711 0.74219-3.707 1.9688-0.67578-0.21484-1.3789-0.32422-2.0859-0.32422-3.7031 0.003906-6.7031 3.0039-6.707 6.707v0.10547c-1.5977 1.0273-2.5977 2.7695-2.6758 4.668h-11.961c-3.7617 0-6.8125 3.0469-6.8125 6.8125v41.914c0.003907 1.7695 0.69531 3.4648 1.9297 4.7305h-5.8984c-0.57422 0-1.0391 0.46484-1.0391 1.043v4.4883c0 1.3828 0.54688 2.707 1.5234 3.6836 0.97656 0.97656 2.3008 1.5234 3.6836 1.5234h76.375c1.3828 0 2.707-0.54688 3.6836-1.5234 0.97656-0.97656 1.5234-2.3008 1.5234-3.6836v-4.4883c0-0.27734-0.10938-0.54297-0.30469-0.73828-0.19531-0.19531-0.46094-0.30469-0.73438-0.30469zm-57.762-56.605c0.39453-0.1875 0.625-0.60547 0.58203-1.0391-0.011719-0.1875-0.011719-0.375 0-0.5625 0.007813-2.5547 2.0742-4.6211 4.625-4.625 0.72656-0.003907 1.4375 0.16406 2.0859 0.48828 0.26172 0.13281 0.56641 0.14453 0.84375 0.039062 0.27344-0.10937 0.48828-0.32812 0.59375-0.60156 0.24609-0.68359 0.79297-1.2227 1.4844-1.457s1.4492-0.14062 2.0664 0.25c0.26953 0.17578 0.60156 0.21484 0.90625 0.11328 0.30469-0.10547 0.54297-0.34375 0.64453-0.64453 1.3594-3.9102 5.3398-6.2695 9.4219-5.582 4.082 0.6875 7.0703 4.2227 7.0703 8.3633 0 1.2344-0.27344 2.4531-0.80469 3.5703-0.12891 0.27734-0.12891 0.59766 0 0.875 0.13281 0.28125 0.37891 0.48438 0.67969 0.5625 1.8438 0.48828 3.043 2.2695 2.793 4.1602-0.25 1.8945-1.8633 3.3047-3.7734 3.3008h-27.574c-1.7695 0-3.3047-1.2227-3.6953-2.9492-0.39453-1.7266 0.45703-3.4922 2.0508-4.2617zm15.406 17.938c1.4297-0.003906 2.7227 0.85547 3.2695 2.1758 0.55078 1.3203 0.25 2.8438-0.76172 3.8555-1.0117 1.0078-2.5312 1.3125-3.8555 0.76172-1.3203-0.55078-2.1758-1.8398-2.1719-3.2695 0-0.93359 0.37109-1.832 1.0312-2.4922 0.66016-0.66016 1.5547-1.0312 2.4883-1.0312zm41.312 44.199c0 1.7266-1.3984 3.125-3.125 3.125h-76.375c-1.7266 0-3.125-1.3984-3.125-3.125v-3.4492h15.762c0.57422 0 1.0391-0.46484 1.0391-1.0391 0-0.57812-0.46484-1.043-1.0391-1.043h-6.0234c-2.6094-0.003906-4.7227-2.1211-4.7266-4.7305v-41.914c0.003906-2.6094 2.1172-4.7266 4.7266-4.7305h12.219c0.79297 2.4219 3.0508 4.0586 5.5938 4.0625h4.9258v3.457l-3.0391 3.3555c-2.7539-0.85547-5.707 0.51172-6.8281 3.168s-0.046875 5.7305 2.4844 7.1055c2.5352 1.3789 5.6992 0.60937 7.3164-1.7773 1.6172-2.3867 1.1602-5.6094-1.0547-7.4531l2.9375-3.25c0.17188-0.19141 0.26953-0.44141 0.26953-0.69922v-3.8555h5.707v6.668c-2.8398 0.53906-4.8086 3.1484-4.5352 6.0312 0.26953 2.8789 2.6875 5.0781 5.5781 5.0781s5.3086-2.1992 5.5781-5.0781c0.27344-2.8828-1.6953-5.4922-4.5352-6.0312v-6.668h5.707v3.8555c0 0.25781 0.097656 0.50781 0.26953 0.69922l2.9375 3.25c-2.3633 1.9258-2.8711 5.3359-1.1758 7.8672 1.6992 2.5312 5.0469 3.3555 7.7266 1.8984 2.6797-1.4531 3.8125-4.7109 2.6094-7.5156-1.2031-2.8008-4.3398-4.2305-7.2422-3.293l-3.043-3.3555v-3.457h4.9297c2.543-0.003906 4.8008-1.6406 5.5938-4.0625h12.219c2.6094 0.003906 4.7227 2.1211 4.7266 4.7305v41.914c-0.003906 2.6094-2.1172 4.7266-4.7266 4.7305h-50.875c-0.57812 0-1.043 0.46484-1.043 1.043 0 0.57422 0.46484 1.0391 1.043 1.0391h60.613zm-51.23-40.676c0.003907 1.4297-0.85156 2.7188-2.1719 3.2695-1.3242 0.55078-2.8438 0.24609-3.8555-0.76172-1.0117-1.0117-1.3125-2.5352-0.76172-3.8555 0.54688-1.3203 1.8398-2.1797 3.2695-2.1758 1.9414 0.007813 3.5156 1.5781 3.5195 3.5234zm23.355-3.5234c1.4297-0.003906 2.7227 0.85547 3.2695 2.1758 0.55078 1.3203 0.25 2.8438-0.76172 3.8555-1.0117 1.0078-2.5312 1.3125-3.8555 0.76172-1.3203-0.55078-2.1758-1.8398-2.1719-3.2695 0.003906-1.9453 1.5781-3.5156 3.5195-3.5234zm-21.125-17.895c-0.18359-0.20703-0.28125-0.48047-0.26172-0.75781 0.015625-0.27734 0.14453-0.53906 0.35547-0.72266 4.3359-3.8359 10.852-3.8359 15.188 0 0.42969 0.38281 0.47266 1.0391 0.09375 1.4688-0.19922 0.22656-0.48047 0.35547-0.78125 0.35547-0.24219-0.003906-0.47266-0.09375-0.65625-0.25-3.5586-3.1836-8.9414-3.1836-12.5 0-0.42578 0.35938-1.0625 0.31641-1.4375-0.09375zm11.949 2.3867c0.41797 0.37891 0.45703 1.0312 0.082031 1.457-0.19531 0.21875-0.47656 0.34375-0.76953 0.34375-0.25781 0.003906-0.50781-0.089844-0.69922-0.26172-1.6523-1.4258-4.0977-1.4258-5.75 0-0.20312 0.20312-0.48047 0.3125-0.76562 0.30469-0.28516-0.011719-0.55469-0.13672-0.74609-0.34766-0.1875-0.21484-0.28516-0.49609-0.26172-0.78125 0.027344-0.28516 0.16406-0.54687 0.38672-0.72656 2.4219-2.1836 6.1016-2.1836 8.5234 0zm-23.168 40.906c-0.1875-0.32422-0.1875-0.71875 0-1.043l6.4492-9.625c0.19141-0.28516 0.51562-0.45703 0.86328-0.45703s0.67188 0.17188 0.86328 0.45703l6.4492 9.625c0.20312 0.3125 0.22266 0.71094 0.050781 1.043-0.17969 0.33594-0.53125 0.55078-0.91406 0.55078h-2.2812v2.5c0 0.57422-0.46875 1.043-1.043 1.043s-1.043-0.46875-1.043-1.043v-3.543c0-0.57422 0.46875-1.0391 1.043-1.0391h1.418l-4.4922-6.668-4.5 6.668h1.4609c0.27344 0 0.53906 0.10938 0.73438 0.30469 0.19531 0.19531 0.30469 0.46094 0.30469 0.73438v7.4492c0 0.57422-0.46484 1.043-1.0391 1.043-0.57812 0-1.043-0.46875-1.043-1.043v-6.4062h-2.3633c-0.38672 0-0.73828-0.21484-0.91797-0.55078zm23.082 0c-0.16797-0.33203-0.14844-0.73047 0.054688-1.043l6.4492-9.625h-0.003907c0.19531-0.28906 0.51953-0.46094 0.86719-0.46094 0.34375 0 0.66797 0.17188 0.86328 0.46094l6.4492 9.625c0.21484 0.32031 0.23828 0.73047 0.054687 1.0742-0.17969 0.33984-0.53516 0.55078-0.92188 0.55078h-2.3633v2.5c0 0.57422-0.46484 1.043-1.043 1.043-0.57422 0-1.0391-0.46875-1.0391-1.043v-3.5742c0-0.57422 0.46484-1.0391 1.0391-1.0391h1.4609l-4.5-6.668-4.4922 6.668h1.418c0.27734 0 0.54297 0.10938 0.73828 0.30469 0.19531 0.19531 0.30469 0.46094 0.30469 0.73438v7.4492c0 0.57422-0.46875 1.043-1.043 1.043s-1.043-0.46875-1.043-1.043v-6.4062h-2.332c-0.38672 0.003906-0.74609-0.21094-0.92578-0.55078z"/>
</svg>