<svg xmlns="http://www.w3.org/2000/svg" xmlns:xlink="http://www.w3.org/1999/xlink" xml:space="preserve" style="shape-rendering:geometricPrecision;text-rendering:geometricPrecision;image-rendering:optimizeQuality;" viewBox="0 0 173.397 216.74624999999997" x="0px" y="0px" fill-rule="evenodd" clip-rule="evenodd"><defs><style type="text/css">
   
    .fil0 {fill:black}
   
  </style></defs><g><g><path class="fil0" d="M45.0894 62.3442c-0.4262,0 -0.8522,-0.1593 -1.1816,-0.48l-6.7436 -6.5697c-0.3273,-0.3183 -0.5119,-0.7557 -0.5119,-1.2125 0,-0.4572 0.1846,-0.8943 0.5117,-1.2132l6.7438 -6.5695c0.6701,-0.6521 1.7421,-0.6381 2.3948,0.0315 0.6523,0.6698 0.6385,1.742 -0.0314,2.3946l-5.4988 5.3562 5.4984 5.3562c0.6703,0.6529 0.6841,1.7252 0.0318,2.3951 -0.332,0.3402 -0.7726,0.5115 -1.2132,0.5113z"/><path class="fil0" d="M65.2355 62.3442c-0.441,0 -0.8813,-0.1709 -1.2133,-0.5113 -0.6526,-0.6702 -0.6385,-1.742 0.0314,-2.3947l5.4988 -5.3566 -5.4987 -5.3562c-0.67,-0.6529 -0.6841,-1.7247 -0.0315,-2.3946 0.6527,-0.6697 1.7244,-0.6834 2.3947,-0.0314l6.7437 6.5694c0.327,0.3187 0.5119,0.7564 0.5119,1.2132 0,0.4568 -0.1849,0.8943 -0.5119,1.2128l-6.7437 6.5691c-0.3295,0.3207 -0.7557,0.4805 -1.1814,0.4803z"/><path class="fil0" d="M53.1158 65.9752c-0.1253,0 -0.253,-0.0141 -0.3803,-0.0434 -0.9116,-0.2094 -1.481,-1.1176 -1.2714,-2.0292l4.6549 -20.2834c0.2088,-0.9112 1.1176,-1.4812 2.0291,-1.2713 0.9116,0.2089 1.481,1.1176 1.2715,2.0292l-4.6549 20.2828c-0.18,0.7843 -0.8774,1.3153 -1.6489,1.3153z"/><path class="fil0" d="M98.066 77.7679l-59.7203 0c-0.9352,0 -1.6933,-0.7582 -1.6933,-1.6934 0,-0.9355 0.7581,-1.6933 1.6933,-1.6933l59.7203 -0.0002c0.9352,0 1.6933,0.7583 1.6933,1.6935 0.0001,0.935 -0.7581,1.6937 -1.6933,1.6934z"/><path class="fil0" d="M98.066 89.4726l-59.7203 0c-0.9352,0 -1.6933,-0.7584 -1.6933,-1.6937 0,-0.9348 0.7581,-1.6933 1.6933,-1.6933l59.7203 0c0.9352,0 1.6933,0.7585 1.6933,1.6933 0.0001,0.9352 -0.7581,1.6938 -1.6933,1.6937z"/><path class="fil0" d="M98.0657 60.8364l-17.7543 0c-0.9352,0 -1.6933,-0.7579 -1.6933,-1.6931 0,-0.9354 0.7581,-1.6933 1.6933,-1.6933l17.7543 -0.0001c0.9352,0 1.6936,0.7582 1.6936,1.6934 0.0001,0.9351 -0.7584,1.6933 -1.6936,1.6931z"/><path class="fil0" d="M98.0657 50.7137l-17.7543 0c-0.9352,0 -1.6933,-0.7578 -1.6933,-1.693 0,-0.9355 0.7581,-1.6933 1.6933,-1.6933l17.7543 -0.0002c0.9352,0 1.6936,0.7583 1.6936,1.6935 0.0001,0.935 -0.7584,1.6933 -1.6936,1.693z"/><path class="fil0" d="M133.614 57.1419c-4.8228,0 -8.7469,3.9237 -8.7469,8.7469 0.0001,4.8227 3.924,8.7467 8.7468,8.7467 4.8229,-0.0001 8.7468,-3.9239 8.7468,-8.7467 0,-4.8234 -3.924,-8.7468 -8.7467,-8.7469zm0 20.8796c-6.6904,0 -12.1332,-5.4423 -12.1332,-12.1327 0,-6.6907 5.4427,-12.1335 12.1331,-12.1335 6.6905,-0.0003 12.1335,5.443 12.1335,12.1335 0,6.6904 -5.4431,12.1331 -12.1334,12.1327z"/><path class="fil0" d="M128.56 91.772l10.1075 0 0 -5.4951c0,-0.7302 0.4677,-1.378 1.1613,-1.6073 2.5696,-0.8505 4.9032,-2.2 6.9359,-4.0111 0.5454,-0.4859 1.3409,-0.5676 1.9731,-0.2022l4.765 2.7508 5.0536 -8.7531 -4.7597 -2.748c-0.6319,-0.3651 -0.9593,-1.0932 -0.8122,-1.8079 0.2699,-1.3107 0.4068,-2.6596 0.4068,-4.0093 0.0001,-1.3503 -0.1369,-2.6991 -0.4068,-4.0094 -0.147,-0.7144 0.1803,-1.4432 0.8121,-1.8079l4.7598 -2.7482 -5.0536 -8.7535 -4.7642 2.7508c-0.6326,0.3647 -1.4281,0.2838 -1.9732,-0.2019 -2.033,-1.8115 -4.3667,-3.1603 -6.9366,-4.0104 -0.6932,-0.2296 -1.1614,-0.8774 -1.1614,-1.6077l0.0001 -5.4961 -10.1075 0 0 5.4959c0,0.7302 -0.4682,1.3785 -1.1617,1.6079 -2.5699,0.8499 -4.904,2.1992 -6.9363,4.0104 -0.5458,0.4856 -1.3413,0.5672 -1.9735,0.2021l-4.7646 -2.751 -5.0532 8.7535 4.7597 2.748c0.6322,0.3651 0.9592,1.0937 0.8121,1.8081 -0.2695,1.3093 -0.4064,2.6585 -0.4064,4.0094 0,1.35 0.1369,2.6994 0.4064,4.0089 0.1472,0.7146 -0.1799,1.4436 -0.8121,1.8083l-4.7597 2.748 5.0532 8.7531 4.7647 -2.7508c0.6325,-0.3651 1.4276,-0.2836 1.9734,0.2022 2.032,1.8108 4.3659,3.1605 6.9363,4.0107 0.6936,0.229 1.1617,0.8774 1.1617,1.6076l0 5.4952zm11.8005 3.387l-13.4938 0c-0.9352,0 -1.6934,-0.7581 -1.6934,-1.6929l0 -6.0001c-2.1755,-0.8498 -4.1931,-2.0161 -6.0216,-3.4815l-5.2006 3.0024c-0.8096,0.4671 -1.8457,0.1902 -2.3132,-0.6197l-6.7468 -11.6862c-0.2247,-0.3893 -0.2854,-0.8512 -0.1694,-1.2852 0.1161,-0.434 0.4001,-0.8036 0.7892,-1.0283l5.1982 -3.0014c-0.1725,-1.1466 -0.26,-2.3118 -0.26,-3.4773 0,-1.1658 0.0875,-2.3308 0.26,-3.4781l-5.1982 -3.0014c-0.81,-0.4675 -1.0876,-1.5028 -0.6198,-2.3128l6.7468 -11.6862c0.4675,-0.81 1.5032,-1.0876 2.3132,-0.6198l5.2007 3.0022c1.8288,-1.4656 3.8463,-2.6321 6.0215,-3.4812l0 -6.0001c0,-0.9354 0.7581,-1.6933 1.6933,-1.6933l13.4939 -0.0002c0.9351,0 1.6932,0.7583 1.6932,1.6935l0 6c2.1753,0.8489 4.1924,2.0158 6.0216,3.4816l5.2007 -3.0026c0.81,-0.4671 1.8457,-0.19 2.3131,0.62l6.7469 11.6859c0.4678,0.81 0.1901,1.8456 -0.6199,2.3133l-5.1981 3.0012c0.1725,1.1474 0.26,2.3124 0.26,3.478 0,1.1647 -0.0875,2.3304 -0.26,3.4776l5.1982 3.0008c0.3891,0.2247 0.673,0.5948 0.7891,1.0286 0.1161,0.4339 0.0554,0.8961 -0.1693,1.2852l-6.7468 11.686c-0.4675,0.81 -1.5036,1.0867 -2.3133,0.62l-5.2009 -3.0032c-1.8288,1.466 -3.846,2.6327 -6.0213,3.4826l0 5.9995c0,0.935 -0.7581,1.6932 -1.6932,1.6931z"/><path class="fil0" d="M129.408 131.592l-106.682 0c-6.5576,0 -11.8925,-5.3345 -11.8925,-11.8924l0 -68.7959c0,-6.365 4.9797,-11.5824 11.3371,-11.8787 0.9352,-0.0418 1.7267,0.6788 1.7703,1.6126 0.0434,0.9344 -0.6785,1.7268 -1.6126,1.7706 -4.5467,0.2116 -8.1081,3.9433 -8.1081,8.4959l0 68.7955c0,4.6899 3.8156,8.5062 8.5058,8.5062l106.682 -0.0003c4.6903,0 8.5058,-3.8157 8.5058,-8.5059l0 -26.2334c0,-0.935 0.7581,-1.6931 1.6934,-1.6931 0.9348,-0.0004 1.6929,0.7581 1.6929,1.6933l0.0001 26.2332c0,6.5576 -5.3348,11.8926 -11.8922,11.8924z"/><path class="fil0" d="M124.497 116.482l-96.8602 0c-0.9351,0 -1.6932,-0.758 -1.6932,-1.6932l0 -11.8661c0,-0.9354 0.7581,-1.6936 1.6932,-1.6936 0.9352,-0.0002 1.6933,0.7585 1.6933,1.6936l0 10.1727 93.4735 0 0 -10.1727c0,-0.9354 0.7581,-1.6936 1.6933,-1.6936 0.9352,-0.0002 1.6933,0.7585 1.6933,1.6936l0 11.8658c0,0.9355 -0.7581,1.6936 -1.6932,1.6935z"/><path class="fil0" d="M60.7463 146.036c-0.9352,0 -1.6933,-0.7585 -1.6933,-1.6937l0 -14.4441c0,-0.935 0.7581,-1.693 1.6933,-1.693 0.9353,0 1.693,0.7581 1.693,1.6933l0.0001 14.4436c0,0.935 -0.7578,1.6939 -1.6931,1.6939zm30.642 0c-0.9352,0 -1.6934,-0.7585 -1.6934,-1.6937l0.0001 -14.4441c0,-0.935 0.7581,-1.693 1.6933,-1.693 0.9349,0 1.693,0.7581 1.693,1.6933l0 14.4436c0,0.935 -0.7582,1.6939 -1.693,1.6939z"/><path class="fil0" d="M49.7739 160.871l52.5868 0 0 -14.8352 -52.5868 0 0 14.8352zm54.2802 3.3865l-55.9735 0c-0.9352,0 -1.6934,-0.7582 -1.6934,-1.693l0 -18.2226c0,-0.935 0.7582,-1.6928 1.6934,-1.6928l55.9735 -0.0003c0.9352,0 1.6933,0.7584 1.6933,1.6933l0 18.2223c0,0.9347 -0.7581,1.6934 -1.6933,1.6931z"/><path class="fil0" d="M124.169 104.626l-96.2032 0c-4.0857,0 -7.4095,-3.3239 -7.4095,-7.4098l0 -80.6666c0,-4.0855 3.3238,-7.4097 7.4095,-7.4097l96.2032 0c4.0855,0 7.4097,3.3242 7.4097,7.4098l0 21.7621c0,0.935 -0.7585,1.6934 -1.6933,1.6934 -0.9352,-0.0003 -1.6937,-0.7582 -1.6937,-1.6934l0 -21.7622c0,-2.2186 -1.8045,-4.0227 -4.0228,-4.0227l-96.2031 -0.0001c-2.2183,0 -4.023,1.8046 -4.023,4.0229l0 80.6663c0,2.2185 1.8047,4.0233 4.023,4.0233l96.2032 -0.0002c2.2183,0 4.0227,-1.8043 4.0227,-4.0229l0 -3.7499c0,-0.935 0.7584,-1.6931 1.6937,-1.6931 0.9349,-0.0004 1.6933,0.7581 1.6933,1.6933l0 3.7495c0,4.0858 -3.3242,7.4103 -7.4097,7.41z"/><path class="fil0" d="M129.885 30.5386l-107.636 0c-0.9351,0 -1.6932,-0.7584 -1.6932,-1.6937 0,-0.9352 0.7581,-1.6933 1.6932,-1.6933l107.636 -0.0003c0.9349,0 1.6933,0.7585 1.6933,1.6936 0,0.9353 -0.7585,1.6938 -1.6933,1.6937z"/><path class="fil0" d="M34.2066 23.4278c-0.9352,0 -1.6934,-0.7578 -1.6934,-1.6931l0 -3.7913c0,-0.9351 0.7582,-1.6933 1.6934,-1.6933 0.9352,-0.0002 1.6934,0.7584 1.6934,1.6933l0 3.7913c0,0.9351 -0.7582,1.6933 -1.6934,1.6931z"/><path class="fil0" d="M44.367 23.4278c-0.9351,0 -1.6934,-0.7578 -1.6934,-1.6931l0 -3.7913c0,-0.9351 0.7583,-1.6933 1.6934,-1.6933 0.9351,-0.0002 1.6936,0.7584 1.6936,1.6933l0 3.7913c0,0.9351 -0.7585,1.6933 -1.6936,1.6931z"/><path class="fil0" d="M54.5276 23.4278c-0.9352,0 -1.6937,-0.7578 -1.6937,-1.6931l0 -3.7913c0,-0.9351 0.7585,-1.6933 1.6937,-1.6933 0.9352,-0.0002 1.6933,0.7584 1.6933,1.6933l0 3.7913c0,0.9351 -0.7581,1.6933 -1.6933,1.6931z"/><path class="fil0" d="M64.688 23.4278c-0.9349,0 -1.6934,-0.7578 -1.6934,-1.6931l0 -3.7913c0,-0.9351 0.7585,-1.6933 1.6933,-1.6933 0.9352,-0.0002 1.6937,0.7584 1.6937,1.6933l0 3.7913c0,0.9351 -0.7585,1.6933 -1.6936,1.6931z"/></g></g>
  
  </svg>