<svg xmlns="http://www.w3.org/2000/svg" xmlns:xlink="http://www.w3.org/1999/xlink" xml:space="preserve" style="shape-rendering:geometricPrecision;text-rendering:geometricPrecision;image-rendering:optimizeQuality;" viewBox="0 0 6.82666 8.533325000000001" x="0px" y="0px" fill-rule="evenodd" clip-rule="evenodd"><defs><style type="text/css">
   
    .fil1 {fill:none}
    .fil0 {fill:black}
   
  </style></defs><g><g><path class="fil0" d="M6.1708 5.18231l-5.51489 0c-0.168957,0 -0.306236,-0.137272 -0.306236,-0.306209l7.87402e-006 -3.90556c0,-0.168819 0.137264,-0.306205 0.306205,-0.306205l0.673559 -3.93701e-006c0.038752,0 0.0701535,0.0314291 0.0701535,0.0701614 3.93701e-006,0.0387283 -0.0314213,0.0701575 -0.0701535,0.0701575l-0.673535 -3.93701e-006c-0.0914803,0 -0.165921,0.0744252 -0.165921,0.165898l7.87402e-006 3.90555c0,0.0914724 0.0744134,0.165894 0.16589,0.165894l5.51492 0c0.0914803,0 0.165886,-0.0744173 0.165886,-0.165894l0 -3.90556c0,-0.0914724 -0.0744213,-0.16589 -0.165894,-0.16589l-0.673559 -3.93701e-006c-0.0387205,0 -0.0701575,-0.0314213 -0.0701575,-0.0701535 0,-0.0387323 0.0314252,-0.0701575 0.0701575,-0.0701575l0.673567 -3.93701e-006c0.168815,0 0.306201,0.137394 0.306201,0.306213l0 3.90555c0,0.168933 -0.137394,0.306209 -0.306201,0.306209z"/><path class="fil0" d="M5.9948 4.77038l-5.16304 0c-0.0387205,0 -0.0701575,-0.0314252 -0.0701575,-0.0701575l0 -3.55367c0,-0.0387323 0.0314291,-0.0701535 0.0701575,-0.0701535l0.497681 -3.93701e-006c0.038752,0 0.0701535,0.0314252 0.0701535,0.0701614 3.93701e-006,0.0387244 -0.0314213,0.0701575 -0.0701535,0.0701575l-0.427524 -3.93701e-006 0 3.41336 5.02273 0 0 -3.41336 -0.427413 0c-0.0387205,0 -0.0701575,-0.0314213 -0.0701575,-0.0701535 0,-0.0387362 0.0314252,-0.0701575 0.0701575,-0.0701575l0.497571 -3.93701e-006c0.0388583,0 0.0701457,0.0314252 0.0701457,0.0701614l1.1811e-005 3.55367c0,0.0387283 -0.0313189,0.0701575 -0.0701575,0.0701575z"/><path class="fil0" d="M4.77143 6.43248l-2.71616 0c-0.0388622,0 -0.0701772,-0.0313031 -0.0701772,-0.0701535l1.9685e-005 -0.220343c0,-0.160173 0.130307,-0.290492 0.29048,-0.290492l0.23252 -3.93701e-006c-0.108524,-0.329961 0.204256,-0.760646 0.219118,-0.780862 0.0230354,-0.0313071 0.0669882,-0.0378819 0.0981693,-0.0148622 0.0312008,0.0228937 0.0377598,0.0668701 0.0148583,0.0980512 -0.0964606,0.131299 -0.313516,0.51778 -0.161626,0.726543 0.0154803,0.0214331 0.0176575,0.0496969 0.00572441,0.0732008 -0.0119213,0.0235039 -0.0361772,0.038248 -0.0624882,0.038248l-0.34626 -3.93701e-006c-0.0828189,0 -0.150201,0.0673583 -0.150201,0.150185l1.9685e-005 0.150177 2.57585 0 0 -0.150181c0,-0.0828268 -0.067374,-0.150177 -0.150197,-0.150177l-0.346276 -3.93701e-006c-0.0264213,0 -0.0505512,-0.0147362 -0.0624882,-0.0382441 -0.0120551,-0.0235079 -0.00974409,-0.0517638 0.00572441,-0.0732008 0.152378,-0.209382 -0.0650394,-0.595484 -0.16163,-0.726543 -0.0229961,-0.031185 -0.0163228,-0.0751535 0.0148583,-0.0980512 0.0311811,-0.0230197 0.0751535,-0.0163228 0.0981732,0.0148622 0.0148661,0.0202126 0.327646,0.450906 0.219122,0.780866l0.232531 -3.93701e-006c0.160157,0 0.290484,0.130331 0.290484,0.2905l1.1811e-005 0.220335c0,0.0388543 -0.0314409,0.0701614 -0.0701575,0.0701575z"/><path class="fil0" d="M3.41333 5.56465c-0.0952362,0 -0.172717,0.0774646 -0.172717,0.172591 7.87402e-006,0.095248 0.0774646,0.172717 0.172713,0.172717 0.0952638,-7.87402e-006 0.172713,-0.0774685 0.172713,-0.172717 2.75591e-005,-0.0951299 -0.0774606,-0.172591 -0.172709,-0.172591zm0 0.485614c-0.172571,0 -0.313031,-0.140433 -0.313031,-0.313024 7.87402e-006,-0.172591 0.140437,-0.312906 0.313028,-0.312906 0.172598,-3.93701e-006 0.313028,0.140315 0.313028,0.312906 2.75591e-005,0.172587 -0.140437,0.313031 -0.313024,0.313024z"/><path class="fil0" d="M1.59974 0.534378c-0.110358,0 -0.200146,0.0897677 -0.200146,0.200122l3.93701e-006 2.87341c0,0.110354 0.0897677,0.200126 0.200118,0.200126l3.62725 -7.87402e-006c0.110358,0 0.20011,-0.0897598 0.20011,-0.200114l0 -2.87341c0,-0.11035 -0.0897677,-0.200114 -0.200118,-0.200114l-3.62722 -3.93701e-006zm3.62722 3.41396l-3.62722 0c-0.187839,0 -0.340457,-0.152732 -0.340457,-0.340429l0 -2.87341c0,-0.187697 0.152614,-0.340307 0.340433,-0.340307l3.62725 -3.93701e-006c0.187697,0 0.340425,0.152622 0.340425,0.340315l0 2.87341c0,0.187697 -0.152736,0.340441 -0.340425,0.340433z"/><path class="fil0" d="M5.49723 1.36165l-4.16779 0c-0.0388307,0 -0.0701575,-0.0313031 -0.0701575,-0.0701575 0,-0.0387402 0.0313031,-0.0700354 0.0701575,-0.0700354l4.16779 -3.93701e-006c0.038752,0 0.0701575,0.0313071 0.0701575,0.0700394 0,0.0388543 -0.0314252,0.0701575 -0.0701575,0.0701575z"/><path class="fil0" d="M1.76124 0.956543l0.23374 0 -0.0556614 -0.157248 -0.122417 0 -0.0556614 0.157248zm0.33311 0.140315l-0.432374 0c-0.0227717,0 -0.0442323,-0.0110827 -0.0573898,-0.0297165 -0.0131496,-0.0186417 -0.0164409,-0.0423898 -0.00876772,-0.0639488l0.105378 -0.297441c0.00997244,-0.0280157 0.0364016,-0.0467677 0.066122,-0.0467677l0.221579 -3.93701e-006c0.0297047,0 0.0562441,0.0187598 0.0661142,0.0467717l0.105496 0.297441c0.00753543,0.0215512 0.00424016,0.045311 -0.00890945,0.0639488 -0.0131535,0.0186299 -0.0344724,0.0297165 -0.057248,0.0297165z"/><path class="fil0" d="M2.4695 0.956543l0.23374 0 -0.0556614 -0.157248 -0.122417 0 -0.0556614 0.157248zm0.333142 0.140315l-0.432402 0c-0.0227756,0 -0.0442205,-0.0110827 -0.057378,-0.0297165 -0.0131339,-0.0186417 -0.0164449,-0.0423898 -0.00876772,-0.0639488l0.105358 -0.297441c0.0100079,-0.0280157 0.0364173,-0.0467677 0.0661378,-0.0467677l0.221563 -3.93701e-006c0.0297362,0 0.0562638,0.0187598 0.0661299,0.0467717l0.105484 0.297441c0.00756693,0.0215512 0.00425591,0.045311 -0.00889764,0.0639488 -0.0131378,0.0186299 -0.0344685,0.0297165 -0.0572283,0.0297165z"/><path class="fil0" d="M3.17778 0.956543l0.23374 0 -0.0556575 -0.157248 -0.122421 0 -0.0556614 0.157248zm0.33311 0.140315l-0.43237 0c-0.0227756,0 -0.0442362,-0.0110827 -0.0573898,-0.0297165 -0.0131535,-0.0186417 -0.0164449,-0.0423898 -0.00877165,-0.0639488l0.105378 -0.297441c0.00997638,-0.0280157 0.0363976,-0.0467677 0.0661181,-0.0467677l0.221555 -3.93701e-006c0.0297362,0 0.0562756,0.0187598 0.0661378,0.0467717l0.105504 0.297441c0.0075315,0.0215512 0.00424409,0.045311 -0.00891732,0.0639488 -0.0131457,0.0186299 -0.0344646,0.0297165 -0.0572441,0.0297165z"/><path class="fil0" d="M3.88605 0.956543l0.233878 0 -0.0557992 -0.157248 -0.122417 0 -0.0556614 0.157248zm0.333138 0.140315l-0.432402 0c-0.0227717,0 -0.0442244,-0.0110827 -0.057378,-0.0297165 -0.0131339,-0.0186417 -0.0164409,-0.0423898 -0.00877165,-0.0639488l0.10537 -0.297441c0.01,-0.0280157 0.0364094,-0.0467677 0.066126,-0.0467677l0.221575 -3.93701e-006c0.0297047,0 0.0562559,0.0187598 0.066122,0.0467717l0.105488 0.297441c0.00756299,0.0215512 0.00425591,0.045311 -0.00889764,0.0639488 -0.0131339,0.0186299 -0.0344724,0.0297165 -0.0572323,0.0297165z"/><path class="fil0" d="M4.23294 2.56005c0.0242244,0 0.0478543,0.0126693 0.0607638,0.0352047l0.258343 0.447374 0.167854 -0.0969528 -0.25835 -0.447378c-0.00925984,-0.0160827 -0.0118189,-0.0353189 -0.00694488,-0.0532244 0.00475197,-0.0180276 0.016563,-0.033252 0.0326417,-0.0426299l0.0476417 -0.0275315 -0.384661 -0.222039 0 0.444205 0.0477441 -0.0275276c0.0109606,-0.00645276 0.0230157,-0.00949606 0.0349685,-0.0095zm0.293535 0.648469c-0.0242244,0 -0.047874,-0.0125433 -0.0609094,-0.0350748l-0.258197 -0.447382 -0.0922205 0.0532283c-0.0216772,0.0125433 -0.0484764,0.0125512 -0.0701614,3.93701e-006 -0.0216732,-0.0125472 -0.0350827,-0.035685 -0.0350827,-0.0607756l7.87402e-006 -0.687205c0,-0.0249724 0.0133976,-0.0482323 0.0350748,-0.0607756 0.021685,-0.0125472 0.0484803,-0.0125472 0.0701575,0l0.595138 0.343598c0.0216772,0.0125433 0.0350591,0.035811 0.0350591,0.0607795 1.9685e-005,0.0250866 -0.0133937,0.0482323 -0.0350787,0.0607795l-0.092063 0.0532244 0.258213 0.447378c0.00937402,0.0160709 0.0119252,0.0352008 0.00705512,0.0532283 -0.00475197,0.0180236 -0.016563,0.033248 -0.0326417,0.0426299l-0.289378 0.166984c-0.0111024,0.00645276 -0.0231654,0.00938189 -0.0349724,0.00937795z"/><path class="fil0" d="M2.95112 2.36591c-0.0282559,0 -0.0549528,-0.0171772 -0.0655512,-0.045189l-0.233606 -0.612173c-0.0138937,-0.0361772 0.00437795,-0.0767362 0.0405551,-0.0904961 0.0361772,-0.0138898 0.0767323,0.00426378 0.0904921,0.040437l0.233638 0.612291c0.013752,0.0361732 -0.00440551,0.0767402 -0.0405787,0.0905 -0.00814961,0.00316142 -0.016689,0.00462992 -0.0249488,0.00462992z"/><path class="fil0" d="M2.44174 2.36591c-0.0141417,0 -0.0282717,-0.00414173 -0.040689,-0.0129134l-0.430791 -0.306091c-0.0185276,-0.0131575 -0.0295,-0.0344606 -0.0295,-0.0572402 1.1811e-005,-0.0226614 0.0109606,-0.0439724 0.0294764,-0.057248l0.430835 -0.306087c0.0316496,-0.0224134 0.0753701,-0.0149803 0.0979016,0.0165669 0.0224331,0.0316654 0.0149882,0.0753937 -0.016563,0.0978071l-0.350295 0.248957 0.350295 0.248965c0.0315709,0.0224094 0.0389764,0.0661378 0.016563,0.0978071 -0.0137402,0.0192402 -0.0353189,0.0294764 -0.0572323,0.0294764z"/><path class="fil0" d="M3.22687 2.36591c-0.0219213,0 -0.0434961,-0.0102323 -0.0572559,-0.0294764 -0.0224094,-0.0316732 -0.0149843,-0.0753937 0.016563,-0.0978071l0.350319 -0.248965 -0.350319 -0.248961c-0.0315433,-0.0224094 -0.0389764,-0.0661339 -0.016563,-0.0978031 0.0224291,-0.0315512 0.0662598,-0.0389764 0.0978071,-0.0165669l0.430819 0.306083c0.0186378,0.0132756 0.0295866,0.0345984 0.0295866,0.057252 1.5748e-005,0.0227717 -0.0109646,0.0440906 -0.0295984,0.0572441l-0.430795 0.306083c-0.0123031,0.00877165 -0.0264488,0.0129173 -0.040563,0.0129173z"/><path class="fil0" d="M3.49837 2.76273l-1.32814 0c-0.0387244,0 -0.0701614,-0.0314213 -0.0701614,-0.0701535 3.93701e-006,-0.0387362 0.0314252,-0.0701575 0.0701575,-0.0701575l1.32815 -3.93701e-006c0.0387244,0 0.0701299,0.0314291 0.0701299,0.0701614 2.75591e-005,0.0387283 -0.0314213,0.0701575 -0.0701299,0.0701535z"/><path class="fil0" d="M3.49837 3.15956l-1.32814 0c-0.0387244,0 -0.0701614,-0.0314173 -0.0701614,-0.0701535 3.93701e-006,-0.0387362 0.0314252,-0.0701535 0.0701575,-0.0701535l1.32815 0c0.0387244,0 0.0701299,0.0314213 0.0701299,0.0701535 2.75591e-005,0.0387323 -0.0314213,0.0701575 -0.0701299,0.0701535z"/><path class="fil0" d="M3.49837 3.55638l-1.32814 0c-0.0387244,0 -0.0701614,-0.0314173 -0.0701614,-0.0701535 3.93701e-006,-0.0387323 0.0314252,-0.0701575 0.0701575,-0.0701575l1.32815 -3.93701e-006c0.0387244,0 0.0701299,0.0314291 0.0701299,0.0701614 2.75591e-005,0.0387323 -0.0314213,0.0701575 -0.0701299,0.0701535z"/></g></g><rect class="fil1" width="6.82666" height="6.82666"/></svg>